<svg xmlns="http://www.w3.org/2000/svg" viewBox="0 0 512 512">
    <path d="M256 512C114.833 512 0 397.156 0 256S114.833 0 256 0s256 114.844 256 256-114.833 256-256 256zm0-490.667C126.604 21.333 21.333 126.604 21.333 256S126.604 490.667 256 490.667 490.667 385.396 490.667 256 385.396 21.333 256 21.333z" fill="#303c42"/>
    <linearGradient id="a" gradientUnits="userSpaceOnUse" x1="-45.578" y1="639.555" x2="-23.828" y2="629.414" gradientTransform="matrix(21.3333 0 0 -21.3333 996.333 13791.667)">
        <stop offset="0" stop-color="#fff" stop-opacity=".2"/>
        <stop offset="1" stop-color="#fff" stop-opacity="0"/>
    </linearGradient>
    <path d="M256 0C114.833 0 0 114.844 0 256s114.833 256 256 256 256-114.844 256-256S397.167 0 256 0zm0 490.667C126.604 490.667 21.333 385.396 21.333 256S126.604 21.333 256 21.333 490.667 126.604 490.667 256 385.396 490.667 256 490.667z" fill="url(#a)"/>
</svg>
